<?xml version="1.0" standalone="no"?>
<!DOCTYPE svg PUBLIC "-//W3C//DTD SVG 20010904//EN"
 "http://www.w3.org/TR/2001/REC-SVG-20010904/DTD/svg10.dtd">
<svg version="1.0" xmlns="http://www.w3.org/2000/svg"
 width="700.000000pt" height="700.000000pt" viewBox="0 0 700.000000 700.000000"
 preserveAspectRatio="xMidYMid meet">
<metadata>
Created by potrace 1.11, written by Peter Selinger 2001-2013
</metadata>
<g transform="translate(0.000000,700.000000) scale(0.100000,-0.100000)"
fill="#000000" stroke="none">
<path d="M1785 6532 c-45 -10 -104 -43 -138 -79 -58 -59 -72 -96 -72 -193 0
-75 3 -91 27 -131 66 -113 184 -164 306 -133 132 34 214 144 207 280 -5 104
-56 184 -149 231 -49 25 -132 36 -181 25z"/>
<path d="M2870 6526 c-124 -40 -201 -146 -196 -270 8 -203 212 -329 391 -241
208 101 208 394 1 494 -51 25 -145 33 -196 17z"/>
<path d="M3962 6521 c-46 -16 -65 -28 -108 -66 -25 -24 -63 -95 -71 -136 -25
-125 38 -250 153 -305 64 -30 115 -35 183 -17 117 30 200 130 207 251 12 191
-180 336 -364 273z"/>
<path d="M5080 6526 c-56 -18 -95 -42 -129 -81 -48 -55 -64 -101 -65 -185 0
-65 3 -82 29 -129 71 -129 230 -180 360 -117 254 125 179 505 -103 520 -31 2
-73 -2 -92 -8z"/>
<path d="M6173 6521 c-153 -52 -227 -221 -162 -372 76 -177 319 -216 452 -74
73 77 94 214 48 304 -66 128 -206 187 -338 142z"/>
<path d="M643 6514 c-23 -9 -62 -33 -86 -55 -120 -105 -125 -281 -12 -395 190
-191 506 -28 464 239 -15 93 -89 179 -182 214 -44 16 -134 14 -184 -3z"/>
<path d="M705 5429 c-186 -24 -295 -219 -215 -387 29 -62 87 -118 150 -143 54
-21 167 -17 215 8 73 38 121 94 145 167 61 189 -98 381 -295 355z"/>
<path d="M2920 5432 c-97 -12 -184 -75 -224 -162 -31 -68 -29 -169 6 -236 88
-169 308 -204 440 -69 126 128 98 340 -56 429 -43 26 -123 44 -166 38z"/>
<path d="M4011 5428 c-204 -31 -301 -264 -180 -433 55 -76 137 -115 234 -111
73 3 127 27 182 83 186 185 24 500 -236 461z"/>
<path d="M1723 5404 c-132 -65 -191 -224 -131 -355 60 -132 193 -194 330 -154
191 55 260 305 123 447 -59 62 -105 82 -195 85 -64 3 -83 0 -127 -23z"/>
<path d="M5065 5417 c-142 -55 -214 -200 -170 -342 35 -111 132 -186 247 -190
247 -11 382 272 218 458 -47 54 -125 87 -202 86 -35 0 -77 -6 -93 -12z"/>
<path d="M6145 5406 c-152 -69 -204 -262 -109 -406 52 -78 127 -115 229 -114
108 1 187 49 240 146 55 101 35 236 -48 319 -79 79 -210 102 -312 55z"/>
<path d="M685 4324 c-83 -21 -149 -71 -190 -145 -24 -44 -29 -65 -29 -124 0
-118 54 -203 159 -251 212 -97 441 98 377 321 -23 81 -70 138 -145 176 -38 20
-134 32 -172 23z"/>
<path d="M1757 4314 c-67 -24 -111 -60 -151 -122 -108 -172 25 -413 229 -414
249 -3 375 289 202 469 -65 68 -192 99 -280 67z"/>
<path d="M2885 4320 c-81 -19 -158 -82 -191 -158 -25 -56 -26 -147 -3 -208 55
-147 234 -218 375 -149 210 103 207 402 -6 498 -47 21 -124 29 -175 17z"/>
<path d="M3964 4312 c-87 -30 -141 -85 -171 -174 -76 -225 156 -433 372 -334
128 58 188 188 150 324 -42 150 -202 234 -351 184z"/>
<path d="M5042 4300 c-173 -82 -214 -306 -80 -441 131 -130 354 -98 437 64
121 235 -120 489 -357 377z"/>
<path d="M6159 4306 c-222 -90 -230 -399 -13 -502 79 -37 157 -35 238 6 105
53 158 146 151 261 -12 187 -203 306 -376 235z"/>
<path d="M693 3218 c-137 -23 -228 -133 -227 -273 1 -113 51 -191 158 -248 54
-28 174 -30 226 -2 142 74 200 226 139 365 -50 112 -175 180 -296 158z"/>
<path d="M1758 3209 c-62 -21 -115 -63 -152 -123 -23 -37 -30 -61 -34 -120 -4
-63 -1 -81 20 -127 50 -109 148 -170 263 -164 71 3 116 21 170 68 61 53 90
117 90 202 -1 83 -24 142 -78 196 -73 73 -185 100 -279 68z"/>
<path d="M2903 3219 c-163 -29 -268 -197 -218 -351 37 -111 136 -189 248 -193
74 -4 109 6 169 47 203 138 135 453 -107 495 -27 5 -69 6 -92 2z"/>
<path d="M4007 3219 c-128 -19 -229 -136 -229 -268 -1 -160 130 -285 289 -276
79 5 126 27 184 86 182 186 17 496 -244 458z"/>
<path d="M5091 3214 c-211 -55 -280 -307 -125 -460 163 -160 426 -71 462 158
30 189 -149 350 -337 302z"/>
<path d="M6198 3215 c-213 -54 -282 -314 -124 -466 147 -142 394 -74 451 124
58 200 -127 393 -327 342z"/>
<path d="M650 2103 c-191 -64 -248 -308 -108 -453 123 -126 336 -101 430 51
34 54 40 77 39 150 0 100 -59 192 -154 240 -53 28 -146 33 -207 12z"/>
<path d="M1743 2099 c-202 -77 -236 -357 -58 -481 107 -74 257 -62 351 29 101
99 107 270 12 377 -75 86 -197 116 -305 75z"/>
<path d="M2855 2103 c-64 -22 -144 -100 -167 -164 -48 -136 17 -285 151 -347
104 -48 243 -17 316 70 118 140 76 343 -87 428 -53 28 -151 34 -213 13z"/>
<path d="M3964 2102 c-224 -77 -253 -371 -50 -497 40 -24 62 -30 122 -33 61
-4 81 0 126 21 107 50 162 135 162 252 0 109 -52 194 -151 245 -56 29 -143 34
-209 12z"/>
<path d="M5060 2102 c-68 -23 -144 -105 -165 -177 -29 -100 -3 -205 70 -277
59 -59 98 -73 195 -73 75 0 91 3 132 27 86 51 138 140 139 240 1 72 -43 172
-94 210 -82 63 -182 81 -277 50z"/>
<path d="M6193 2111 c-246 -63 -278 -407 -48 -516 138 -65 299 -6 367 134 47
96 20 240 -59 312 -63 60 -179 91 -260 70z"/>
<path d="M705 1012 c-101 -18 -180 -76 -217 -159 -33 -73 -30 -173 8 -243 52
-95 148 -150 255 -145 241 11 351 310 175 473 -58 54 -156 87 -221 74z"/>
<path d="M1793 1009 c-84 -15 -158 -71 -199 -152 -10 -17 -19 -64 -22 -103 -4
-62 -1 -79 20 -125 51 -108 136 -163 253 -163 77 0 126 19 187 73 112 98 111
294 -1 400 -60 57 -154 85 -238 70z"/>
<path d="M2910 1009 c-66 -10 -112 -32 -153 -73 -134 -134 -104 -346 62 -439
46 -26 65 -31 125 -31 163 -1 279 117 277 280 -2 162 -149 287 -311 263z"/>
<path d="M4003 1009 c-174 -31 -274 -220 -201 -379 49 -108 137 -165 253 -164
108 1 187 49 239 144 109 199 -66 439 -291 399z"/>
<path d="M5099 1006 c-85 -18 -148 -66 -191 -149 -33 -62 -32 -174 2 -240 45
-89 132 -146 232 -152 77 -4 137 17 198 72 148 132 110 373 -70 452 -60 26
-104 30 -171 17z"/>
<path d="M6207 1008 c-76 -16 -144 -66 -190 -140 -16 -26 -36 -121 -31 -149
14 -84 34 -127 83 -175 52 -51 101 -74 173 -78 254 -16 392 289 212 468 -64
64 -159 93 -247 74z"/>
</g>
</svg>
