<svg width="1024" height="1024" xmlns="http://www.w3.org/2000/svg" class="icon">

 <g>
  <title>background</title>
  <rect fill="none" id="canvas_background" height="402" width="582" y="-1" x="-1"/>
 </g>
 <g>
  <title>Layer 1</title>
  <path id="svg_1" fill="#ffffff" d="m875.595,108.005c0,0.002 0,0.004 0,0.005c0,22.311 18.087,40.398 40.398,40.398c22.311,0 40.398,-18.087 40.398,-40.398c0,-0.002 0,-0.004 0,-0.006c0,-0.001 0,-0.003 0,-0.005c0,-22.311 -18.087,-40.398 -40.398,-40.398c-22.311,0 -40.398,18.087 -40.398,40.398c0,0.002 0,0.004 0,0.006z"/>
  <path id="svg_2" fill="#ffffff" d="m875.595,269.603c0,0.002 0,0.004 0,0.005c0,22.311 18.087,40.398 40.398,40.398c22.311,0 40.398,-18.087 40.398,-40.398c0,-0.002 0,-0.004 0,-0.006c0,-0.001 0,-0.003 0,-0.005c0,-22.311 -18.087,-40.398 -40.398,-40.398c-22.311,0 -40.398,18.087 -40.398,40.398s0,0.004 0,0.006z"/>
  <path id="svg_3" fill="#ffffff" d="m875.595,431.202c0,0.002 0,0.004 0,0.005c0,22.311 18.087,40.398 40.398,40.398c22.311,0 40.398,-18.087 40.398,-40.398c0,-0.002 0,-0.004 0,-0.006c0,-0.001 0,-0.003 0,-0.005c0,-22.311 -18.087,-40.398 -40.398,-40.398c-22.311,0 -40.398,18.087 -40.398,40.398s0,0.004 0,0.006z"/>
  <path id="svg_4" fill="#ffffff" d="m875.595,592.798c0,0.002 0,0.004 0,0.005c0,22.311 18.087,40.398 40.398,40.398c22.311,0 40.398,-18.087 40.398,-40.398c0,-0.002 0,-0.004 0,-0.006c0,-0.001 0,-0.003 0,-0.005c0,-22.311 -18.087,-40.398 -40.398,-40.398c-22.311,0 -40.398,18.087 -40.398,40.398s0,0.004 0,0.006z"/>
  <path id="svg_5" fill="#ffffff" d="m875.595,754.397c0,0.002 0,0.004 0,0.005c0,22.311 18.087,40.398 40.398,40.398c22.311,0 40.398,-18.087 40.398,-40.398c0,-0.002 0,-0.004 0,-0.006c0,-0.001 0,-0.003 0,-0.005c0,-22.311 -18.087,-40.398 -40.398,-40.398c-22.311,0 -40.398,18.087 -40.398,40.398s0,0.004 0,0.006z"/>
  <path id="svg_6" fill="#ffffff" d="m875.595,915.995c0,0.002 0,0.004 0,0.005c0,22.311 18.087,40.398 40.398,40.398c22.311,0 40.398,-18.087 40.398,-40.398c0,-0.002 0,-0.004 0,-0.006c0,-0.001 0,-0.003 0,-0.005c0,-22.311 -18.087,-40.398 -40.398,-40.398c-22.311,0 -40.398,18.087 -40.398,40.398s0,0.004 0,0.006z"/>
  <path id="svg_7" fill="#ffffff" d="m713.998,108.005c0,0 0,0 0,0c0,22.311 18.087,40.398 40.398,40.398c22.311,0 40.398,-18.087 40.398,-40.398c0,0 0,0 0,0c0,0 0,0 0,0c0,-22.311 -18.087,-40.398 -40.398,-40.398c-22.311,0 -40.398,18.087 -40.398,40.398s0,0 0,0z"/>
  <path id="svg_8" fill="#ffffff" d="m713.998,269.603c0,0 0,0 0,0c0,22.311 18.087,40.398 40.398,40.398c22.311,0 40.398,-18.087 40.398,-40.398c0,0 0,0 0,0c0,0 0,0 0,0c0,-22.311 -18.087,-40.398 -40.398,-40.398c-22.311,0 -40.398,18.087 -40.398,40.398s0,0 0,0z"/>
  <path id="svg_9" fill="#ffffff" d="m713.998,431.202c0,0 0,0 0,0c0,22.311 18.087,40.398 40.398,40.398c22.311,0 40.398,-18.087 40.398,-40.398c0,0 0,0 0,0c0,0 0,0 0,0c0,-22.311 -18.087,-40.398 -40.398,-40.398c-22.311,0 -40.398,18.087 -40.398,40.398s0,0 0,0z"/>
  <path id="svg_10" fill="#ffffff" d="m713.998,592.798c0,0 0,0 0,0c0,22.311 18.087,40.398 40.398,40.398c22.311,0 40.398,-18.087 40.398,-40.398c0,0 0,0 0,0c0,0 0,0 0,0c0,-22.311 -18.087,-40.398 -40.398,-40.398c-22.311,0 -40.398,18.087 -40.398,40.398s0,0 0,0z"/>
  <path id="svg_11" fill="#ffffff" d="m713.998,754.397c0,0 0,0 0,0c0,22.311 18.087,40.398 40.398,40.398c22.311,0 40.398,-18.087 40.398,-40.398c0,0 0,0 0,0c0,0 0,0 0,0c0,-22.311 -18.087,-40.398 -40.398,-40.398c-22.311,0 -40.398,18.087 -40.398,40.398s0,0 0,0z"/>
  <path id="svg_12" fill="#ffffff" d="m713.998,915.995c0,0 0,0 0,0c0,22.311 18.087,40.398 40.398,40.398c22.311,0 40.398,-18.087 40.398,-40.398c0,0 0,0 0,0c0,0 0,0 0,0c0,-22.311 -18.087,-40.398 -40.398,-40.398c-22.311,0 -40.398,18.087 -40.398,40.398s0,0 0,0z"/>
  <path id="svg_13" fill="#ffffff" d="m552.398,108.005c0,0 0,0 0,0c0,22.311 18.087,40.398 40.398,40.398c22.311,0 40.398,-18.087 40.398,-40.398c0,0 0,0 0,0c0,0 0,0 0,0c0,-22.311 -18.087,-40.398 -40.398,-40.398c-22.311,0 -40.398,18.087 -40.398,40.398s0,0 0,0z"/>
  <path id="svg_14" fill="#ffffff" d="m552.398,269.603c0,0 0,0 0,0c0,22.311 18.087,40.398 40.398,40.398c22.311,0 40.398,-18.087 40.398,-40.398c0,0 0,0 0,0c0,0 0,0 0,0c0,-22.311 -18.087,-40.398 -40.398,-40.398c-22.311,0 -40.398,18.087 -40.398,40.398s0,0 0,0z"/>
  <path id="svg_15" fill="#ffffff" d="m552.398,431.202c0,0 0,0 0,0c0,22.311 18.087,40.398 40.398,40.398c22.311,0 40.398,-18.087 40.398,-40.398c0,0 0,0 0,0c0,0 0,0 0,0c0,-22.311 -18.087,-40.398 -40.398,-40.398c-22.311,0 -40.398,18.087 -40.398,40.398s0,0 0,0z"/>
  <path id="svg_16" fill="#ffffff" d="m552.398,592.798c0,0 0,0 0,0c0,22.311 18.087,40.398 40.398,40.398c22.311,0 40.398,-18.087 40.398,-40.398c0,0 0,0 0,0c0,0 0,0 0,0c0,-22.311 -18.087,-40.398 -40.398,-40.398c-22.311,0 -40.398,18.087 -40.398,40.398s0,0 0,0z"/>
  <path id="svg_17" fill="#ffffff" d="m552.398,754.397c0,0 0,0 0,0c0,22.311 18.087,40.398 40.398,40.398c22.311,0 40.398,-18.087 40.398,-40.398c0,0 0,0 0,0c0,0 0,0 0,0c0,-22.311 -18.087,-40.398 -40.398,-40.398c-22.311,0 -40.398,18.087 -40.398,40.398s0,0 0,0z"/>
  <path id="svg_18" fill="#ffffff" d="m552.398,915.995c0,0 0,0 0,0c0,22.311 18.087,40.398 40.398,40.398c22.311,0 40.398,-18.087 40.398,-40.398c0,0 0,0 0,0c0,0 0,0 0,0c0,-22.311 -18.087,-40.398 -40.398,-40.398c-22.311,0 -40.398,18.087 -40.398,40.398s0,0 0,0z"/>
  <path id="svg_19" fill="#ffffff" d="m390.803,108.005c0,0 0,0 0,0c0,22.311 18.087,40.398 40.398,40.398c22.311,0 40.398,-18.087 40.398,-40.398c0,0 0,0 0,0c0,0 0,0 0,0c0,-22.311 -18.087,-40.398 -40.398,-40.398c-22.311,0 -40.398,18.087 -40.398,40.398s0,0 0,0z"/>
  <path id="svg_20" fill="#ffffff" d="m390.803,269.603c0,0 0,0 0,0c0,22.311 18.087,40.398 40.398,40.398c22.311,0 40.398,-18.087 40.398,-40.398c0,0 0,0 0,0c0,0 0,0 0,0c0,-22.311 -18.087,-40.398 -40.398,-40.398c-22.311,0 -40.398,18.087 -40.398,40.398s0,0 0,0z"/>
  <path id="svg_21" fill="#ffffff" d="m390.803,431.202c0,0 0,0 0,0c0,22.311 18.087,40.398 40.398,40.398c22.311,0 40.398,-18.087 40.398,-40.398c0,0 0,0 0,0c0,0 0,0 0,0c0,-22.311 -18.087,-40.398 -40.398,-40.398c-22.311,0 -40.398,18.087 -40.398,40.398s0,0 0,0z"/>
  <path id="svg_22" fill="#ffffff" d="m390.803,592.798c0,0 0,0 0,0c0,22.311 18.087,40.398 40.398,40.398c22.311,0 40.398,-18.087 40.398,-40.398c0,0 0,0 0,0c0,0 0,0 0,0c0,-22.311 -18.087,-40.398 -40.398,-40.398c-22.311,0 -40.398,18.087 -40.398,40.398s0,0 0,0z"/>
  <path id="svg_23" fill="#ffffff" d="m390.803,754.397c0,0 0,0 0,0c0,22.311 18.087,40.398 40.398,40.398c22.311,0 40.398,-18.087 40.398,-40.398c0,0 0,0 0,0c0,0 0,0 0,0c0,-22.311 -18.087,-40.398 -40.398,-40.398c-22.311,0 -40.398,18.087 -40.398,40.398s0,0 0,0z"/>
  <path id="svg_24" fill="#ffffff" d="m390.803,915.995c0,0 0,0 0,0c0,22.311 18.087,40.398 40.398,40.398c22.311,0 40.398,-18.087 40.398,-40.398c0,0 0,0 0,0c0,0 0,0 0,0c0,-22.311 -18.087,-40.398 -40.398,-40.398c-22.311,0 -40.398,18.087 -40.398,40.398s0,0 0,0z"/>
  <path id="svg_25" fill="#ffffff" d="m229.204,108.005c0,22.311 18.087,40.398 40.398,40.398s40.398,-18.087 40.398,-40.398c0,0 0,0 0,0c0,-22.311 -18.087,-40.398 -40.398,-40.398c-22.311,0 -40.398,18.087 -40.398,40.398c0,0 0,0 0,0z"/>
  <path id="svg_26" fill="#ffffff" d="m229.204,269.603c0,22.311 18.087,40.398 40.398,40.398s40.398,-18.087 40.398,-40.398c0,0 0,0 0,0c0,-22.311 -18.087,-40.398 -40.398,-40.398c-22.311,0 -40.398,18.087 -40.398,40.398c0,0 0,0 0,0z"/>
  <path id="svg_27" fill="#ffffff" d="m229.204,431.202c0,22.311 18.087,40.398 40.398,40.398s40.398,-18.087 40.398,-40.398c0,0 0,0 0,0c0,-22.311 -18.087,-40.398 -40.398,-40.398c-22.311,0 -40.398,18.087 -40.398,40.398c0,0 0,0 0,0z"/>
  <path id="svg_28" fill="#ffffff" d="m229.204,592.798c0,22.311 18.087,40.398 40.398,40.398s40.398,-18.087 40.398,-40.398c0,0 0,0 0,0c0,-22.311 -18.087,-40.398 -40.398,-40.398c-22.311,0 -40.398,18.087 -40.398,40.398c0,0 0,0 0,0z"/>
  <path id="svg_29" fill="#ffffff" d="m229.204,754.397c0,22.311 18.087,40.398 40.398,40.398s40.398,-18.087 40.398,-40.398c0,0 0,0 0,0c0,-22.311 -18.087,-40.398 -40.398,-40.398c-22.311,0 -40.398,18.087 -40.398,40.398c0,0 0,0 0,0z"/>
  <path id="svg_30" fill="#ffffff" d="m229.204,915.995c0,22.311 18.087,40.398 40.398,40.398s40.398,-18.087 40.398,-40.398c0,0 0,0 0,0c0,-22.311 -18.087,-40.398 -40.398,-40.398c-22.311,0 -40.398,18.087 -40.398,40.398c0,0 0,0 0,0z"/>
  <path id="svg_31" fill="#ffffff" d="m67.605,109.005c0,0.002 0,0.004 0,0.005c0,22.311 18.087,40.398 40.398,40.398c22.311,0 40.398,-18.087 40.398,-40.398c0,-0.002 0,-0.004 0,-0.006c0,-0.001 0,-0.003 0,-0.005c0,-22.311 -18.087,-40.398 -40.398,-40.398c-22.311,0 -40.398,18.087 -40.398,40.398c0,0.002 0,0.004 0,0.006z"/>
  <path id="svg_32" fill="#ffffff" d="m67.605,269.603c0,0.002 0,0.004 0,0.005c0,22.311 18.087,40.398 40.398,40.398c22.311,0 40.398,-18.087 40.398,-40.398c0,-0.002 0,-0.004 0,-0.006c0,-0.001 0,-0.003 0,-0.005c0,-22.311 -18.087,-40.398 -40.398,-40.398c-22.311,0 -40.398,18.087 -40.398,40.398s0,0.004 0,0.006z"/>
  <path id="svg_33" fill="#ffffff" d="m67.605,431.202c0,0.002 0,0.004 0,0.005c0,22.311 18.087,40.398 40.398,40.398c22.311,0 40.398,-18.087 40.398,-40.398c0,-0.002 0,-0.004 0,-0.006c0,-0.001 0,-0.003 0,-0.005c0,-22.311 -18.087,-40.398 -40.398,-40.398c-22.311,0 -40.398,18.087 -40.398,40.398s0,0.004 0,0.006z"/>
  <path id="svg_34" fill="#ffffff" d="m67.605,592.798c0,0.002 0,0.004 0,0.005c0,22.311 18.087,40.398 40.398,40.398c22.311,0 40.398,-18.087 40.398,-40.398c0,-0.002 0,-0.004 0,-0.006c0,-0.001 0,-0.003 0,-0.005c0,-22.311 -18.087,-40.398 -40.398,-40.398c-22.311,0 -40.398,18.087 -40.398,40.398s0,0.004 0,0.006z"/>
  <path id="svg_35" fill="#ffffff" d="m67.605,754.397c0,0.002 0,0.004 0,0.005c0,22.311 18.087,40.398 40.398,40.398c22.311,0 40.398,-18.087 40.398,-40.398c0,-0.002 0,-0.004 0,-0.006c0,-0.001 0,-0.003 0,-0.005c0,-22.311 -18.087,-40.398 -40.398,-40.398c-22.311,0 -40.398,18.087 -40.398,40.398s0,0.004 0,0.006z"/>
  <path id="svg_36" fill="#ffffff" d="m67.605,915.995c0,0.002 0,0.004 0,0.005c0,22.311 18.087,40.398 40.398,40.398c22.311,0 40.398,-18.087 40.398,-40.398c0,-0.002 0,-0.004 0,-0.006c0,-0.001 0,-0.003 0,-0.005c0,-22.311 -18.087,-40.398 -40.398,-40.398c-22.311,0 -40.398,18.087 -40.398,40.398s0,0.004 0,0.006z"/>
 </g>
</svg>