<svg width="1024" height="1024" xmlns="http://www.w3.org/2000/svg" style="vector-effect: non-scaling-stroke;" stroke="null" class="icon">

 <g stroke="null">
  <title stroke="null">background</title>
  <rect stroke="null" fill="none" id="canvas_background" height="402" width="582" y="-1" x="-1"/>
 </g>
 <g stroke="null">
  <title stroke="null">Layer 1</title>
  <rect rx="64" stroke="null" x="0" y="0" id="svg_37" height="1023.750074" width="1023.999958" stroke-opacity="null" stroke-width="null" fill="#303030"/>
  <path stroke="null" id="svg_1" fill="#56ffaa" d="m875.595,108.005c0,0.002 0,0.004 0,0.005c0,22.311 18.087,40.398 40.398,40.398c22.311,0 40.398,-18.087 40.398,-40.398c0,-0.002 0,-0.004 0,-0.006c0,-0.001 0,-0.003 0,-0.005c0,-22.311 -18.087,-40.398 -40.398,-40.398c-22.311,0 -40.398,18.087 -40.398,40.398c0,0.002 0,0.004 0,0.006z"/>
  <path stroke="null" id="svg_2" fill="#56ffff" d="m875.595,269.603c0,0.002 0,0.004 0,0.005c0,22.311 18.087,40.398 40.398,40.398c22.311,0 40.398,-18.087 40.398,-40.398c0,-0.002 0,-0.004 0,-0.006c0,-0.001 0,-0.003 0,-0.005c0,-22.311 -18.087,-40.398 -40.398,-40.398c-22.311,0 -40.398,18.087 -40.398,40.398s0,0.004 0,0.006z"/>
  <path stroke="null" id="svg_3" fill="#56aaff" d="m875.595,431.202c0,0.002 0,0.004 0,0.005c0,22.311 18.087,40.398 40.398,40.398c22.311,0 40.398,-18.087 40.398,-40.398c0,-0.002 0,-0.004 0,-0.006c0,-0.001 0,-0.003 0,-0.005c0,-22.311 -18.087,-40.398 -40.398,-40.398c-22.311,0 -40.398,18.087 -40.398,40.398s0,0.004 0,0.006z"/>
  <path stroke="null" id="svg_4" fill="#5656ff" d="m875.595,592.798c0,0.002 0,0.004 0,0.005c0,22.311 18.087,40.398 40.398,40.398c22.311,0 40.398,-18.087 40.398,-40.398c0,-0.002 0,-0.004 0,-0.006c0,-0.001 0,-0.003 0,-0.005c0,-22.311 -18.087,-40.398 -40.398,-40.398c-22.311,0 -40.398,18.087 -40.398,40.398s0,0.004 0,0.006z"/>
  <path stroke="null" id="svg_5" fill="#aa56ff" d="m875.595,754.397c0,0.002 0,0.004 0,0.005c0,22.311 18.087,40.398 40.398,40.398c22.311,0 40.398,-18.087 40.398,-40.398c0,-0.002 0,-0.004 0,-0.006c0,-0.001 0,-0.003 0,-0.005c0,-22.311 -18.087,-40.398 -40.398,-40.398c-22.311,0 -40.398,18.087 -40.398,40.398s0,0.004 0,0.006z"/>
  <path stroke="null" id="svg_6" fill="#ff56ff" d="m875.595,917.995c0,0.002 0,0.004 0,0.005c0,22.311 18.087,40.398 40.398,40.398c22.311,0 40.398,-18.087 40.398,-40.398c0,-0.002 0,-0.004 0,-0.006c0,-0.001 0,-0.003 0,-0.005c0,-22.311 -18.087,-40.398 -40.398,-40.398c-22.311,0 -40.398,18.087 -40.398,40.398s0,0.004 0,0.006z"/>
  <path stroke="null" id="svg_7" fill="#56ff56" d="m713.998,108.005c0,0 0,0 0,0c0,22.311 18.087,40.398 40.398,40.398c22.311,0 40.398,-18.087 40.398,-40.398c0,0 0,0 0,0c0,0 0,0 0,0c0,-22.311 -18.087,-40.398 -40.398,-40.398c-22.311,0 -40.398,18.087 -40.398,40.398s0,0 0,0z"/>
  <path stroke="null" id="svg_8" fill="#56ffaa" d="m713.998,269.603c0,0 0,0 0,0c0,22.311 18.087,40.398 40.398,40.398c22.311,0 40.398,-18.087 40.398,-40.398c0,0 0,0 0,0c0,0 0,0 0,0c0,-22.311 -18.087,-40.398 -40.398,-40.398c-22.311,0 -40.398,18.087 -40.398,40.398s0,0 0,0z"/>
  <path stroke="null" id="svg_9" fill="#56ffff" d="m713.998,431.202c0,0 0,0 0,0c0,22.311 18.087,40.398 40.398,40.398c22.311,0 40.398,-18.087 40.398,-40.398c0,0 0,0 0,0c0,0 0,0 0,0c0,-22.311 -18.087,-40.398 -40.398,-40.398c-22.311,0 -40.398,18.087 -40.398,40.398s0,0 0,0z"/>
  <path stroke="null" id="svg_10" fill="#56aaff" d="m713.998,592.798c0,0 0,0 0,0c0,22.311 18.087,40.398 40.398,40.398c22.311,0 40.398,-18.087 40.398,-40.398c0,0 0,0 0,0c0,0 0,0 0,0c0,-22.311 -18.087,-40.398 -40.398,-40.398c-22.311,0 -40.398,18.087 -40.398,40.398s0,0 0,0z"/>
  <path stroke="null" id="svg_11" fill="#5656ff" d="m713.998,754.397c0,0 0,0 0,0c0,22.311 18.087,40.398 40.398,40.398c22.311,0 40.398,-18.087 40.398,-40.398c0,0 0,0 0,0c0,0 0,0 0,0c0,-22.311 -18.087,-40.398 -40.398,-40.398c-22.311,0 -40.398,18.087 -40.398,40.398s0,0 0,0z"/>
  <path stroke="null" id="svg_12" fill="#aa56ff" d="m713.998,915.995c0,0 0,0 0,0c0,22.311 18.087,40.398 40.398,40.398c22.311,0 40.398,-18.087 40.398,-40.398c0,0 0,0 0,0c0,0 0,0 0,0c0,-22.311 -18.087,-40.398 -40.398,-40.398c-22.311,0 -40.398,18.087 -40.398,40.398s0,0 0,0z"/>
  <path stroke="null" id="svg_13" fill="#aaff56" d="m552.398,108.005c0,0 0,0 0,0c0,22.311 18.087,40.398 40.398,40.398c22.311,0 40.398,-18.087 40.398,-40.398c0,0 0,0 0,0c0,0 0,0 0,0c0,-22.311 -18.087,-40.398 -40.398,-40.398c-22.311,0 -40.398,18.087 -40.398,40.398s0,0 0,0z"/>
  <path stroke="null" id="svg_14" fill="#56ff56" d="m552.398,269.603c0,0 0,0 0,0c0,22.311 18.087,40.398 40.398,40.398c22.311,0 40.398,-18.087 40.398,-40.398c0,0 0,0 0,0c0,0 0,0 0,0c0,-22.311 -18.087,-40.398 -40.398,-40.398c-22.311,0 -40.398,18.087 -40.398,40.398s0,0 0,0z"/>
  <path stroke="null" id="svg_15" fill="#56ffaa" d="m552.398,431.202c0,0 0,0 0,0c0,22.311 18.087,40.398 40.398,40.398c22.311,0 40.398,-18.087 40.398,-40.398c0,0 0,0 0,0c0,0 0,0 0,0c0,-22.311 -18.087,-40.398 -40.398,-40.398c-22.311,0 -40.398,18.087 -40.398,40.398s0,0 0,0z"/>
  <path stroke="null" id="svg_16" fill="#56ffff" d="m552.398,592.798c0,0 0,0 0,0c0,22.311 18.087,40.398 40.398,40.398c22.311,0 40.398,-18.087 40.398,-40.398c0,0 0,0 0,0c0,0 0,0 0,0c0,-22.311 -18.087,-40.398 -40.398,-40.398c-22.311,0 -40.398,18.087 -40.398,40.398s0,0 0,0z"/>
  <path stroke="null" id="svg_17" fill="#56aaff" d="m552.398,754.397c0,0 0,0 0,0c0,22.311 18.087,40.398 40.398,40.398c22.311,0 40.398,-18.087 40.398,-40.398c0,0 0,0 0,0c0,0 0,0 0,0c0,-22.311 -18.087,-40.398 -40.398,-40.398c-22.311,0 -40.398,18.087 -40.398,40.398s0,0 0,0z"/>
  <path stroke="null" id="svg_18" fill="#5656ff" d="m552.398,915.995c0,0 0,0 0,0c0,22.311 18.087,40.398 40.398,40.398c22.311,0 40.398,-18.087 40.398,-40.398c0,0 0,0 0,0c0,0 0,0 0,0c0,-22.311 -18.087,-40.398 -40.398,-40.398c-22.311,0 -40.398,18.087 -40.398,40.398s0,0 0,0z"/>
  <path stroke="null" id="svg_19" fill="#ffff56" d="m390.803,108.005c0,0 0,0 0,0c0,22.311 18.087,40.398 40.398,40.398c22.311,0 40.398,-18.087 40.398,-40.398c0,0 0,0 0,0c0,0 0,0 0,0c0,-22.311 -18.087,-40.398 -40.398,-40.398c-22.311,0 -40.398,18.087 -40.398,40.398s0,0 0,0z"/>
  <path stroke="null" id="svg_20" fill="#aaff56" d="m390.803,271.603c0,0 0,0 0,0c0,22.311 18.087,40.398 40.398,40.398c22.311,0 40.398,-18.087 40.398,-40.398c0,0 0,0 0,0c0,0 0,0 0,0c0,-22.311 -18.087,-40.398 -40.398,-40.398c-22.311,0 -40.398,18.087 -40.398,40.398s0,0 0,0z"/>
  <path stroke="null" id="svg_21" fill="#56ff56" d="m390.803,431.202c0,0 0,0 0,0c0,22.311 18.087,40.398 40.398,40.398c22.311,0 40.398,-18.087 40.398,-40.398c0,0 0,0 0,0c0,0 0,0 0,0c0,-22.311 -18.087,-40.398 -40.398,-40.398c-22.311,0 -40.398,18.087 -40.398,40.398s0,0 0,0z"/>
  <path stroke="null" id="svg_22" fill="#56ffaa" d="m390.803,592.798c0,0 0,0 0,0c0,22.311 18.087,40.398 40.398,40.398c22.311,0 40.398,-18.087 40.398,-40.398c0,0 0,0 0,0c0,0 0,0 0,0c0,-22.311 -18.087,-40.398 -40.398,-40.398c-22.311,0 -40.398,18.087 -40.398,40.398s0,0 0,0z"/>
  <path stroke="null" id="svg_23" fill="#56ffff" d="m390.803,754.397c0,0 0,0 0,0c0,22.311 18.087,40.398 40.398,40.398c22.311,0 40.398,-18.087 40.398,-40.398c0,0 0,0 0,0c0,0 0,0 0,0c0,-22.311 -18.087,-40.398 -40.398,-40.398c-22.311,0 -40.398,18.087 -40.398,40.398s0,0 0,0z"/>
  <path stroke="null" id="svg_24" fill="#56aaff" d="m390.803,915.995c0,0 0,0 0,0c0,22.311 18.087,40.398 40.398,40.398c22.311,0 40.398,-18.087 40.398,-40.398c0,0 0,0 0,0c0,0 0,0 0,0c0,-22.311 -18.087,-40.398 -40.398,-40.398c-22.311,0 -40.398,18.087 -40.398,40.398s0,0 0,0z"/>
  <path stroke="null" id="svg_25" fill="#ffaa56" d="m229.204,108.005c0,22.311 18.087,40.398 40.398,40.398s40.398,-18.087 40.398,-40.398c0,0 0,0 0,0c0,-22.311 -18.087,-40.398 -40.398,-40.398c-22.311,0 -40.398,18.087 -40.398,40.398c0,0 0,0 0,0z"/>
  <path stroke="null" id="svg_26" fill="#ffff56" d="m229.204,269.603c0,22.311 18.087,40.398 40.398,40.398s40.398,-18.087 40.398,-40.398c0,0 0,0 0,0c0,-22.311 -18.087,-40.398 -40.398,-40.398c-22.311,0 -40.398,18.087 -40.398,40.398c0,0 0,0 0,0z"/>
  <path stroke="null" id="svg_27" fill="#aaff56" d="m229.204,433.202c0,22.311 18.087,40.398 40.398,40.398s40.398,-18.087 40.398,-40.398c0,0 0,0 0,0c0,-22.311 -18.087,-40.398 -40.398,-40.398c-22.311,0 -40.398,18.087 -40.398,40.398c0,0 0,0 0,0z"/>
  <path stroke="null" id="svg_28" fill="#56ff56" d="m229.204,592.798c0,22.311 18.087,40.398 40.398,40.398s40.398,-18.087 40.398,-40.398c0,0 0,0 0,0c0,-22.311 -18.087,-40.398 -40.398,-40.398c-22.311,0 -40.398,18.087 -40.398,40.398c0,0 0,0 0,0z"/>
  <path stroke="null" id="svg_29" fill="#56ffaa" d="m229.204,754.397c0,22.311 18.087,40.398 40.398,40.398s40.398,-18.087 40.398,-40.398c0,0 0,0 0,0c0,-22.311 -18.087,-40.398 -40.398,-40.398c-22.311,0 -40.398,18.087 -40.398,40.398c0,0 0,0 0,0z"/>
  <path stroke="null" id="svg_30" fill="#56ffff" d="m229.204,915.995c0,22.311 18.087,40.398 40.398,40.398s40.398,-18.087 40.398,-40.398c0,0 0,0 0,0c0,-22.311 -18.087,-40.398 -40.398,-40.398c-22.311,0 -40.398,18.087 -40.398,40.398c0,0 0,0 0,0z"/>
  <path stroke="null" id="svg_31" fill="#ff5656" d="m67.605,109.005c0,0.002 0,0.004 0,0.005c0,22.311 18.087,40.398 40.398,40.398c22.311,0 40.398,-18.087 40.398,-40.398c0,-0.002 0,-0.004 0,-0.006c0,-0.001 0,-0.003 0,-0.005c0,-22.311 -18.087,-40.398 -40.398,-40.398c-22.311,0 -40.398,18.087 -40.398,40.398c0,0.002 0,0.004 0,0.006z"/>
  <path stroke="null" id="svg_32" fill="#ffaa56" d="m67.605,269.603c0,0.002 0,0.004 0,0.005c0,22.311 18.087,40.398 40.398,40.398c22.311,0 40.398,-18.087 40.398,-40.398c0,-0.002 0,-0.004 0,-0.006c0,-0.001 0,-0.003 0,-0.005c0,-22.311 -18.087,-40.398 -40.398,-40.398c-22.311,0 -40.398,18.087 -40.398,40.398s0,0.004 0,0.006z"/>
  <path stroke="null" id="svg_33" fill="#ffff56" d="m67.605,431.202c0,0.002 0,0.004 0,0.005c0,22.311 18.087,40.398 40.398,40.398c22.311,0 40.398,-18.087 40.398,-40.398c0,-0.002 0,-0.004 0,-0.006c0,-0.001 0,-0.003 0,-0.005c0,-22.311 -18.087,-40.398 -40.398,-40.398c-22.311,0 -40.398,18.087 -40.398,40.398s0,0.004 0,0.006z"/>
  <path stroke="null" id="svg_34" fill="#aaff56" d="m67.605,592.798c0,0.002 0,0.004 0,0.005c0,22.311 18.087,40.398 40.398,40.398c22.311,0 40.398,-18.087 40.398,-40.398c0,-0.002 0,-0.004 0,-0.006c0,-0.001 0,-0.003 0,-0.005c0,-22.311 -18.087,-40.398 -40.398,-40.398c-22.311,0 -40.398,18.087 -40.398,40.398s0,0.004 0,0.006z"/>
  <path stroke="null" id="svg_35" fill="#56ff56" d="m67.605,754.397c0,0.002 0,0.004 0,0.005c0,22.311 18.087,40.398 40.398,40.398c22.311,0 40.398,-18.087 40.398,-40.398c0,-0.002 0,-0.004 0,-0.006c0,-0.001 0,-0.003 0,-0.005c0,-22.311 -18.087,-40.398 -40.398,-40.398c-22.311,0 -40.398,18.087 -40.398,40.398s0,0.004 0,0.006z"/>
  <path stroke="null" id="svg_36" fill="#56ffaa" d="m67.605,915.995c0,0.002 0,0.004 0,0.005c0,22.311 18.087,40.398 40.398,40.398c22.311,0 40.398,-18.087 40.398,-40.398c0,-0.002 0,-0.004 0,-0.006c0,-0.001 0,-0.003 0,-0.005c0,-22.311 -18.087,-40.398 -40.398,-40.398c-22.311,0 -40.398,18.087 -40.398,40.398s0,0.004 0,0.006z"/>
 </g>
</svg>